# xmcd CD database file
#
# Track frame offsets:
#	182
#	23380
#	35650
#	62767
#	75130
#	92702
#	120957
#	142520
#	163637
#	182472
#	201352
#	216130
#	230375
#
# Disc length: 3355 seconds
#
# Revision: 1
# Processed by: cddbd v1.5.2PL0 Copyright (c) Steve Scherf et al.
# Submitted via: CDex 1.51
#
DISCID=930d190d
DTITLE=Steve Earle And The Dukes - The Hard Way
DYEAR=1990
DGENRE=Country
TTITLE0=The Other Kind
TTITLE1=Promise You Anything
TTITLE2=Esmeralda's Hollywood
TTITLE3=Hopeless Romantics
TTITLE4=This Highway's Mine (Roadmaster)
TTITLE5=Billy Austin
TTITLE6=Justice In Ontario
TTITLE7=Have Mercy
TTITLE8=When The People Find Out
TTITLE9=Country Girl
TTITLE10=Regular Guy
TTITLE11=West Nashville Boogie
TTITLE12=Close Your Eyes
EXTD=YEAR: 1990
EXTT0=
EXTT1=
EXTT2=
EXTT3=
EXTT4=
EXTT5=
EXTT6=
EXTT7=
EXTT8=
EXTT9=
EXTT10=
EXTT11=
EXTT12=
PLAYORDER=
